<mxfile host="app.diagrams.net" modified="2023-08-10T20:12:19.399Z" agent="Mozilla/5.0 (Windows NT 10.0; Win64; x64) AppleWebKit/537.36 (KHTML, like Gecko) Chrome/115.0.0.0 Safari/537.36 Edg/115.0.1901.200" etag="gZeAPAbO0cWCWWkB9Qb0" version="21.6.8" type="github">
  <diagram name="Page-1" id="2c0d36ab-eaac-3732-788b-9136903baeff">
    <mxGraphModel dx="1602" dy="787" grid="1" gridSize="10" guides="1" tooltips="1" connect="1" arrows="1" fold="1" page="1" pageScale="1.5" pageWidth="1169" pageHeight="827" background="none" math="0" shadow="0">
      <root>
        <mxCell id="0" />
        <mxCell id="1" parent="0" />
        <mxCell id="Qhec-dshrfYjkhhDYYDJ-127" value="&lt;font style=&quot;font-size: 24px;&quot;&gt;&lt;b&gt;Validación de Documentos&lt;/b&gt;&lt;/font&gt;" style="ellipse;whiteSpace=wrap;html=1;" vertex="1" parent="1">
          <mxGeometry x="790" y="20" width="350" height="120" as="geometry" />
        </mxCell>
        <mxCell id="Qhec-dshrfYjkhhDYYDJ-130" value="" style="endArrow=none;html=1;rounded=0;" edge="1" parent="1">
          <mxGeometry width="50" height="50" relative="1" as="geometry">
            <mxPoint x="305" y="280" as="sourcePoint" />
            <mxPoint x="1625" y="280" as="targetPoint" />
          </mxGeometry>
        </mxCell>
        <mxCell id="Qhec-dshrfYjkhhDYYDJ-133" value="" style="endArrow=classic;html=1;rounded=0;" edge="1" parent="1">
          <mxGeometry width="50" height="50" relative="1" as="geometry">
            <mxPoint x="310" y="280" as="sourcePoint" />
            <mxPoint x="310" y="370" as="targetPoint" />
          </mxGeometry>
        </mxCell>
        <mxCell id="Qhec-dshrfYjkhhDYYDJ-135" value="" style="endArrow=none;html=1;rounded=0;entryX=0.5;entryY=1;entryDx=0;entryDy=0;" edge="1" parent="1" target="Qhec-dshrfYjkhhDYYDJ-127">
          <mxGeometry width="50" height="50" relative="1" as="geometry">
            <mxPoint x="965" y="280" as="sourcePoint" />
            <mxPoint x="850" y="230" as="targetPoint" />
          </mxGeometry>
        </mxCell>
        <mxCell id="Qhec-dshrfYjkhhDYYDJ-136" value="" style="endArrow=classic;html=1;rounded=0;" edge="1" parent="1">
          <mxGeometry width="50" height="50" relative="1" as="geometry">
            <mxPoint x="964.5" y="280" as="sourcePoint" />
            <mxPoint x="965" y="370" as="targetPoint" />
          </mxGeometry>
        </mxCell>
        <mxCell id="Qhec-dshrfYjkhhDYYDJ-137" value="" style="shape=link;html=1;rounded=0;width=14;" edge="1" parent="1">
          <mxGeometry width="100" relative="1" as="geometry">
            <mxPoint x="920" y="190" as="sourcePoint" />
            <mxPoint x="1020" y="190" as="targetPoint" />
          </mxGeometry>
        </mxCell>
        <mxCell id="Qhec-dshrfYjkhhDYYDJ-138" value="&lt;font style=&quot;font-size: 24px;&quot;&gt;&lt;font&gt;&amp;nbsp;Procedimiento de verificación y evaluación de documentos para asegurar su calidad y cumplimiento&lt;/font&gt;&lt;/font&gt;" style="text;html=1;strokeColor=none;fillColor=none;align=center;verticalAlign=middle;whiteSpace=wrap;rounded=0;" vertex="1" parent="1">
          <mxGeometry x="1020" y="150" width="540" height="90" as="geometry" />
        </mxCell>
        <mxCell id="Qhec-dshrfYjkhhDYYDJ-139" value="" style="endArrow=classic;html=1;rounded=0;" edge="1" parent="1">
          <mxGeometry width="50" height="50" relative="1" as="geometry">
            <mxPoint x="1620" y="280" as="sourcePoint" />
            <mxPoint x="1620" y="360" as="targetPoint" />
          </mxGeometry>
        </mxCell>
        <mxCell id="Qhec-dshrfYjkhhDYYDJ-140" value="&lt;font style=&quot;font-size: 24px;&quot;&gt;Informe de Análisis&lt;/font&gt;" style="rounded=0;whiteSpace=wrap;html=1;" vertex="1" parent="1">
          <mxGeometry x="170" y="370" width="310" height="70" as="geometry" />
        </mxCell>
        <mxCell id="Qhec-dshrfYjkhhDYYDJ-142" value="&lt;span style=&quot;color: rgba(0, 0, 0, 0); font-family: monospace; font-size: 0px; font-style: normal; font-variant-ligatures: normal; font-variant-caps: normal; font-weight: 400; letter-spacing: normal; orphans: 2; text-align: start; text-indent: 0px; text-transform: none; widows: 2; word-spacing: 0px; -webkit-text-stroke-width: 0px; background-color: rgb(251, 251, 251); text-decoration-thickness: initial; text-decoration-style: initial; text-decoration-color: initial; float: none; display: inline !important;&quot;&gt;%3CmxGraphModel%3E%3Croot%3E%3CmxCell%20id%3D%220%22%2F%3E%3CmxCell%20id%3D%221%22%20parent%3D%220%22%2F%3E%3CmxCell%20id%3D%222%22%20value%3D%22%22%20style%3D%22rounded%3D0%3BwhiteSpace%3Dwrap%3Dwrap%3Dwrap%1Dwrap%3Dwrap%22D_Bhtml%20D3%221B%22%20vertex%3D%221%22%3parent%3D%20%3%22170E%22CmxGeometry%20x%3D%22370%22%20y%3D%22310%22%20width%3D%2270%22%20height%3D%22%22%2as%3D%3geometry%2%3F%3E&lt;/span&gt;" style="text;whiteSpace=wrap;html=1;" vertex="1" parent="1">
          <mxGeometry x="800" y="410" width="250" height="40" as="geometry" />
        </mxCell>
        <mxCell id="Qhec-dshrfYjkhhDYYDJ-143" value="&lt;font style=&quot;font-size: 24px;&quot;&gt;Instrumento de Medición y Verificación &lt;/font&gt;" style="rounded=0;whiteSpace=wrap;html=1;" vertex="1" parent="1">
          <mxGeometry x="810" y="370" width="310" height="70" as="geometry" />
        </mxCell>
        <mxCell id="Qhec-dshrfYjkhhDYYDJ-144" value="&lt;font style=&quot;font-size: 24px;&quot;&gt;Trazabilidad&lt;/font&gt;" style="rounded=0;whiteSpace=wrap;html=1;" vertex="1" parent="1">
          <mxGeometry x="1460" y="370" width="310" height="70" as="geometry" />
        </mxCell>
      </root>
    </mxGraphModel>
  </diagram>
</mxfile>
